<svg xmlns="http://www.w3.org/2000/svg" aria-hidden="true" style="position:absolute;width:0;height:0;overflow:hidden"><defs><symbol id="burger-menu" viewBox="0 0 24 24"><path d="M4.8 8.8V7.2h14.4v1.6H4.8zm0 4h14.4v-1.6H4.8v1.6zm0 4h14.4v-1.6H4.8v1.6z"/></symbol><symbol id="logo" viewBox="0 0 16 24"><path stroke-width=".421" d="M5.053 7.062H4m7.368 0h1.263m.001 0V1.003a.842.842 0 0 0-.8-.841l-3.2-.161-3.826.167a.842.842 0 0 0-.805.841v6.054m8.631-.001 2.089.364a.758.758 0 0 1 .393.199l.135.13a.535.535 0 0 1-.37.922H1.721a.472.472 0 0 1-.254-.869l.135-.086a.609.609 0 0 1 .179-.078l2.22-.58"/><path stroke-width=".421" d="m2.947 8.676-1.474 8.071 3.4-1.725a.418.418 0 0 1 .362-.009l2.817 1.26a.42.42 0 0 0 .319.01l3.435-1.28a.423.423 0 0 1 .368.036l2.772 1.708-1.053-8.071"/><path stroke-width=".421" d="m1.684 15.536-.156.896a.84.84 0 0 1-.304.514l-.662.529a.546.546 0 0 0 .507.948l3.652-1.167a.842.842 0 0 1 .64.052l2.519 1.288c.21.107.456.122.677.039l3.162-1.178a.84.84 0 0 1 .564-.009l3.09 1.045a.453.453 0 0 0 .483-.73l-.748-.836a.841.841 0 0 1-.202-.417l-.169-.973"/><path stroke-width=".421" d="m1.684 18.361 2.947 2.018 2.818 2.542a.956.956 0 0 0 1.393-.121m6.316-4.439-3.368 2.018-1.053.807m-1.053.807 1.053-.807m-1.053.807-1.053-1.412m1.053 1.412-.842.807m1.263-2.421.632.807m-3.79-.605L8.842 22.8"/></symbol><symbol id="email" viewBox="0 0 18 24"><path d="M15 6H3c-.825 0-1.493.675-1.493 1.5l-.008 9c0 .825.675 1.5 1.5 1.5h12c.825 0 1.5-.675 1.5-1.5v-9c0-.825-.675-1.5-1.5-1.5zm-.3 3.188-5.303 3.315a.758.758 0 0 1-.795 0L3.299 9.188a.637.637 0 1 1 .675-1.08l5.025 3.143 5.025-3.143a.637.637 0 1 1 .675 1.08z"/></symbol><symbol id="profile" viewBox="0 0 24 24"><path d="M12 12c2.21 0 4-1.79 4-4s-1.79-4-4-4-4 1.79-4 4 1.79 4 4 4zm0 2c-2.67 0-8 1.34-8 4v1c0 .55.45 1 1 1h14c.55 0 1-.45 1-1v-1c0-2.66-5.33-4-8-4z"/></symbol><symbol id="mail" viewBox="0 0 24 24"><path stroke-linecap="round" stroke-linejoin="round" d="M4.8 5h14.4c.99 0 1.8.787 1.8 1.75v10.5c0 .963-.81 1.75-1.8 1.75H4.8c-.99 0-1.8-.788-1.8-1.75V6.75C3 5.787 3.81 5 4.8 5z"/><path stroke-linecap="round" stroke-linejoin="round" d="m20 7-8 6-8-6"/></symbol><symbol id="map-pin" viewBox="0 0 24 24"><path stroke-linecap="round" stroke-linejoin="round" d="M20 10.364C20 16.091 12 21 12 21s-8-4.909-8-10.636C4 6.297 7.582 3 12 3s8 3.297 8 7.364z"/><path stroke-linecap="round" stroke-linejoin="round" d="M12 14a3 3 0 1 0 0-6 3 3 0 0 0 0 6z"/></symbol><symbol id="phone" viewBox="0 0 24 24"><path stroke-linecap="round" stroke-linejoin="round" d="M20 16.003v2.414a1.607 1.607 0 0 1-1.754 1.609 15.927 15.927 0 0 1-6.943-2.47 15.68 15.68 0 0 1-4.827-4.827 15.915 15.915 0 0 1-2.47-6.975A1.61 1.61 0 0 1 5.607 4H8.02a1.609 1.609 0 0 1 1.609 1.384c.102.772.291 1.531.563 2.261.221.588.08 1.251-.362 1.697l-1.022 1.022a12.87 12.87 0 0 0 4.827 4.827l1.022-1.022a1.608 1.608 0 0 1 1.697-.362c.73.272 1.488.461 2.261.563a1.609 1.609 0 0 1 1.384 1.633z"/></symbol><symbol id="checkbox" viewBox="0 0 24 24"><path d="M17.168 6.383a1.372 1.372 0 0 1 1.918.014 1.396 1.396 0 0 1 .051 1.928l-7.342 9.232a1.391 1.391 0 0 1-.986.444 1.377 1.377 0 0 1-1.002-.407l-4.869-4.895a1.39 1.39 0 0 1 .424-2.3 1.364 1.364 0 0 1 1.526.34l3.853 3.872 6.391-8.186a.472.472 0 0 1 .037-.041h-.002z"/></symbol></defs></svg>