<svg width="39" height="59" viewBox="0 0 39 59" fill="none" xmlns="http://www.w3.org/2000/svg">
<g clip-path="url(#clip0_333_730)">
<path d="M12 17.5H9.5M27 17.5H30M30 17.5V2.39751C30 1.33379 29.1674 0.456177 28.1051 0.400269L20.5 0L11.4092 0.413219C10.341 0.461771 9.5 1.3419 9.5 2.41116V17.5M30 17.5L34.9242 18.3953C35.2991 18.4635 35.6444 18.6444 35.9139 18.9139L36.2287 19.2287C36.6772 19.6772 36.7468 20.3798 36.395 20.9075V20.9075C36.1482 21.2777 35.7328 21.5 35.288 21.5H23.5H4.12847C3.73584 21.5 3.36918 21.3038 3.15139 20.9771V20.9771C2.79164 20.4375 2.93745 19.7084 3.47708 19.3486L3.79057 19.1396C3.92928 19.0471 4.082 18.9776 4.24283 18.9338L9.5 17.5" stroke="black"/>
<path d="M7 21.5L3.5 41.5L11.5602 37.2328C11.8372 37.0862 12.1669 37.0779 12.451 37.2104L19.1128 40.3193C19.3601 40.4347 19.6438 40.4441 19.8982 40.3452L28.0253 37.1846C28.3235 37.0686 28.6593 37.1024 28.9285 37.2754L35.5 41.5L33 21.5" stroke="black"/>
<path d="M4 38.5L3.62206 40.7677C3.54331 41.2401 3.29761 41.6687 2.92964 41.9753L1.31993 43.3167C0.839522 43.7171 0.69765 44.3953 0.977316 44.9546V44.9546C1.27723 45.5545 1.97257 45.8425 2.60878 45.6304L11.1847 42.7718C11.7052 42.5983 12.2742 42.6462 12.7583 42.9044L18.6898 46.0679C19.2041 46.3422 19.8125 46.3785 20.3558 46.1672L27.8088 43.2688C28.2548 43.0954 28.7481 43.0876 29.1993 43.2468L36.4781 45.8158C36.8066 45.9318 37.1706 45.8863 37.4605 45.693V45.693C38.0132 45.3245 38.1192 44.5558 37.687 44.0515L35.8627 41.9231C35.6254 41.6463 35.4683 41.3099 35.4084 40.9503L35 38.5" stroke="black"/>
<path d="M4 45.5L11 50.5L17.6795 56.7866C18.6503 57.7003 20.2001 57.5666 21 56.5V56.5M36 45.5L28 50.5L25.5 52.5M23 54.5L25.5 52.5M23 54.5L20.5 51M23 54.5L21 56.5M24 50.5L25.5 52.5M16.5 51L21 56.5" stroke="black"/>
</g>
<defs>
<clipPath id="clip0_333_730">
<rect width="39" height="59" fill="white"/>
</clipPath>
</defs>
</svg>
