<svg width="39" height="57" viewBox="0 0 39 57" fill="none" xmlns="http://www.w3.org/2000/svg">
<g clip-path="url(#clip0_1138_972)">
<path d="M12 16.7721H9.5M27 16.7721H30M30 16.7721V2.38086C30 1.31545 29.1648 0.437075 28.1008 0.383401L20.5 0L11.413 0.395868C10.3433 0.442469 9.5 1.32326 9.5 2.39397V16.7721M30 16.7721L34.962 17.6368C35.3127 17.6979 35.6373 17.8621 35.8943 18.1084L36.2154 18.4162C36.6672 18.8492 36.7368 19.5466 36.3794 20.0603V20.0603C36.1417 20.402 35.7518 20.6058 35.3356 20.6058H23.5H4.08563C3.71875 20.6058 3.37509 20.4262 3.16558 20.125V20.125C2.80229 19.6027 2.94609 18.8831 3.4822 18.5406L3.80246 18.336C3.93334 18.2523 4.07653 18.1897 4.22681 18.1505L9.5 16.7721" stroke="white"/>
<path d="M7 20.6057L3.5 39.7739L11.5746 35.6769C11.8437 35.5403 12.16 35.5326 12.4354 35.6558L19.1262 38.6483C19.3657 38.7554 19.6378 38.7641 19.8837 38.6724L28.0422 35.6317C28.3311 35.524 28.6535 35.5556 28.916 35.7173L35.5 39.7739L33 20.6057" stroke="white"/>
<path d="M4 36.8987L3.62989 39.027C3.5462 39.5082 3.28928 39.9422 2.90759 40.247L1.33545 41.5027C0.850159 41.8903 0.707277 42.5672 0.994549 43.1179V43.1179C1.28668 43.6778 1.93933 43.9464 2.54095 43.7542L11.2149 40.9831C11.7178 40.8225 12.2638 40.8671 12.7338 41.1074L18.7161 44.1653C19.2156 44.4206 19.7993 44.4544 20.3249 44.2585L27.834 41.4598C28.2648 41.2992 28.7378 41.2919 29.1733 41.4393L36.5113 43.9214C36.8202 44.0259 37.1599 43.9846 37.4348 43.809V43.809C37.9932 43.4522 38.0991 42.68 37.6573 42.1861L35.8816 40.2006C35.6322 39.9217 35.466 39.5785 35.4019 39.21L35 36.8987" stroke="white"/>
<path d="M4 43.6077L11 48.3997L17.6927 54.4367C18.6697 55.318 20.1891 55.1864 21 54.1502V54.1502M36 43.6077L28 48.3997L25.5 50.3165M23 52.2333L25.5 50.3165M23 52.2333L20.5 48.8789M23 52.2333L21 54.1502M24 48.3997L25.5 50.3165M16.5 48.8789L21 54.1502" stroke="white"/>
</g>
<defs>
<clipPath id="clip0_1138_972">
<rect width="39" height="56.5461" fill="white"/>
</clipPath>
</defs>
</svg>
